<svg width="557" height="600" viewBox="0 0 557 600" fill="none" xmlns="http://www.w3.org/2000/svg">
<path d="M357.316 557.097H196.813L210.641 425.18H336.421L357.316 557.097Z" fill="black" stroke="black"/>
<path d="M149.656 562.043L149.656 562.043C150.504 558.474 154.236 555.761 158.788 555.61L386.857 548.04C391.616 547.882 395.726 550.568 396.725 554.281L402.197 574.622C402.856 577.07 402.07 579.469 400.323 581.276C398.573 583.087 395.86 584.292 392.721 584.292H156.144C153.055 584.292 150.372 583.123 148.618 581.353C146.866 579.587 146.044 577.235 146.62 574.813L149.656 562.043Z" fill="black" stroke="white"/>
<path d="M7.41016 137.955V442.369C7.41016 467.411 26.1704 487.89 49.7047 488.535C154.231 491.402 423.452 498.355 522.955 496.794C540.057 496.526 553.911 481.968 554.404 463.782C556.323 393.063 559.439 223.006 547.907 144.055C545.479 127.429 532.286 114.996 516.476 114.458C428.896 111.478 137.715 102.014 38.2595 104.39C21.1065 104.8 7.41016 119.704 7.41016 137.955Z" fill="black"/>
<path d="M25.3672 136.472V425.687C25.3672 440.308 36.4008 452.221 50.1444 452.44L508.64 459.732C522.266 459.948 533.435 448.287 533.486 433.792L534.414 147.161C534.45 136.796 526.687 128.304 516.946 128.052L45.237 115.844C34.3423 115.562 25.3672 124.879 25.3672 136.472Z" fill="#D9E2FF"/>
<path d="M537.661 471.522C537.657 471.522 537.651 471.522 537.647 471.522L25.3517 460.49C24.96 460.482 24.6489 460.137 24.6564 459.72C24.6645 459.304 25.0025 458.965 25.38 458.981L537.675 470.012C538.067 470.021 538.378 470.365 538.37 470.783C538.362 471.194 538.047 471.522 537.661 471.522Z" fill="white"/>
<path d="M283.498 558.503C283.111 558.503 282.795 558.172 282.789 557.759C282.784 557.342 283.096 557 283.488 556.994L293.261 556.842C293.265 556.842 293.268 556.842 293.272 556.842C293.659 556.842 293.975 557.173 293.981 557.585C293.986 558.003 293.674 558.345 293.282 558.351L283.509 558.503C283.505 558.503 283.502 558.503 283.498 558.503Z" fill="black"/>
<path d="M154.894 577.688C154.857 577.688 154.819 577.685 154.781 577.678C154.394 577.613 154.131 577.226 154.193 576.814L155.587 567.526C156.331 562.566 160.298 558.913 165.019 558.839L268.677 557.227C269.046 557.243 269.391 557.553 269.397 557.97C269.403 558.387 269.09 558.73 268.698 558.736L165.04 560.348C161.01 560.411 157.624 563.529 156.988 567.763L155.594 577.052C155.538 577.423 155.237 577.688 154.894 577.688Z" fill="#FCFCFD"/>
<path d="M85.5031 154.641C89.5836 155.345 92.449 159.469 91.7646 163.955C91.0802 168.441 87.1357 171.389 83.0553 170.685C78.9748 169.98 76.1094 165.856 76.7938 161.37C77.4782 156.885 81.4227 153.936 85.5031 154.641Z" stroke="black" stroke-width="2"/>
<path d="M92.75 212.428C93.5093 207.451 90.3323 202.762 85.6539 201.955C80.9756 201.147 76.5676 204.527 75.8084 209.503C75.0491 214.479 78.2261 219.168 82.9044 219.976C87.5827 220.784 91.9908 217.404 92.75 212.428Z" fill="white"/>
<path d="M92.75 260.729C93.5093 255.752 90.3323 251.063 85.654 250.256C80.9757 249.448 76.5676 252.827 75.8084 257.804C75.0491 262.78 78.2261 267.469 82.9044 268.277C87.5828 269.084 91.9908 265.705 92.75 260.729Z" fill="white"/>
<path d="M87.5671 315.999C91.9459 314.07 94.0252 308.73 92.2114 304.072C90.3976 299.414 85.3776 297.202 80.9988 299.132C76.62 301.061 74.5407 306.401 76.3545 311.059C78.1683 315.716 83.1883 317.928 87.5671 315.999Z" fill="white"/>
<path d="M84.269 370.274C89.0085 370.274 92.8506 366.187 92.8506 361.146C92.8506 356.104 89.0085 352.018 84.269 352.018C79.5296 352.018 75.6875 356.104 75.6875 361.146C75.6875 366.187 79.5296 370.274 84.269 370.274Z" fill="white"/>
<path d="M84.269 418.573C89.0085 418.573 92.8506 414.486 92.8506 409.445C92.8506 404.403 89.0085 400.316 84.269 400.316C79.5296 400.316 75.6875 404.403 75.6875 409.445C75.6875 414.486 79.5296 418.573 84.269 418.573Z" fill="white"/>
<path d="M122.433 128.473V447.726H115.5V128.473H122.433Z" stroke="black" stroke-width="3"/>
<g opacity="0.6">
<path d="M389.903 187.342V194.907H139.617V187.342H389.903Z" stroke="black" stroke-width="3"/>
<path d="M230.506 221.592V229.157H139.617V221.592H230.506Z" stroke="black" stroke-width="3"/>
<path d="M500.111 289.289V296.855H409.223V289.289H500.111Z" stroke="black" stroke-width="3"/>
<path d="M375.173 322.898V330.464H284.285V322.898H375.173Z" stroke="black" stroke-width="3"/>
<path d="M303.816 353.516V361.081H248.875V353.516H303.816Z" stroke="black" stroke-width="3"/>
<path d="M198.105 381.443V389.009H143.164V381.443H198.105Z" stroke="black" stroke-width="3"/>
<path d="M234.052 353.516V361.081H143.164V353.516H234.052Z" stroke="black" stroke-width="3"/>
<path d="M471.73 353.516V361.081H319.59V353.516H471.73Z" stroke="black" stroke-width="3"/>
<path d="M488.281 255.48V263.046H355.297V255.48H488.281Z" stroke="black" stroke-width="3"/>
<path d="M272.601 322.898V330.464H139.617V322.898H272.601Z" stroke="black" stroke-width="3"/>
<path d="M446.188 221.592V229.157H246.039V221.592H446.188Z" stroke="black" stroke-width="3"/>
<path d="M339.766 255.48V263.046H139.617V255.48H339.766Z" stroke="black" stroke-width="3"/>
<path d="M389.903 289.289V296.855H139.617V289.289H389.903Z" stroke="black" stroke-width="3"/>
</g>
<path d="M163.914 165.83L155.227 158.979L155.349 157.43L164.99 152.251L164.879 153.654L157.286 157.539L155.869 158.264L157.137 159.226L164.023 164.452L163.914 165.83Z" stroke="black" stroke-width="2"/>
<path d="M177.628 148.691L179.575 148.865L169.857 170.771L167.91 170.597L177.628 148.691Z" stroke="black" stroke-width="2"/>
<path d="M192.038 162.291L182.396 167.499L182.507 166.1L190.15 162.185L191.575 161.455L190.294 160.494L183.363 155.298L183.472 153.919L192.161 160.742L192.038 162.291Z" stroke="black" stroke-width="2"/>
<path d="M154.808 424.672L146.121 417.821L146.244 416.272L155.884 411.092L155.773 412.496L148.18 416.381L146.764 417.106L148.031 418.068L154.917 423.294L154.808 424.672Z" stroke="black" stroke-width="2"/>
<path d="M168.522 407.533L170.47 407.707L160.751 429.613L158.805 429.438L168.522 407.533Z" stroke="black" stroke-width="2"/>
<path d="M182.933 421.133L173.291 426.34L173.401 424.942L181.045 421.026L182.469 420.296L181.189 419.336L174.257 414.14L174.367 412.761L183.056 419.584L182.933 421.133Z" stroke="black" stroke-width="2"/>
<path d="M428.225 103.295L428.556 102.591L428.171 101.914L421.479 90.1684L431.2 77.7403L443.127 82.5433L443.942 82.8714L444.626 82.3212C449.384 78.4995 454.744 75.4611 460.554 73.4019L461.33 73.127L461.515 72.3252L464.576 59.0537L479.588 57.5888L484.855 70.0185L485.184 70.7933L486.016 70.9169C492.079 71.817 497.865 73.7659 503.192 76.6007L503.969 77.0143L504.709 76.5373L515.618 69.5056L527.272 79.8188L522.701 92.6646L522.439 93.3997L522.891 94.0359C526.488 99.1033 529.354 104.82 531.297 111.025L531.545 111.818L532.35 112.028L544.79 115.275L546.186 131.463L534.482 137.076L533.749 137.427L533.643 138.233C532.793 144.714 530.953 150.893 528.28 156.575L527.948 157.28L528.334 157.956L535.025 169.702L525.305 182.13L513.378 177.328L512.563 177L511.878 177.55C507.121 181.371 501.761 184.41 495.95 186.469L495.175 186.744L494.99 187.545L491.928 200.818L476.917 202.282L471.649 189.853L471.32 189.078L470.488 188.954C464.425 188.055 458.639 186.105 453.312 183.27L452.535 182.856L451.795 183.334L440.887 190.365L429.232 180.052L433.804 167.206L434.065 166.471L433.614 165.835C430.016 160.767 427.151 155.051 425.207 148.846L424.959 148.052L424.155 147.843L411.715 144.596L410.319 128.407L422.023 122.795L422.755 122.443L422.861 121.637C423.711 115.158 425.552 108.979 428.225 103.295ZM464.266 59.0839L464.267 59.0839L464.266 59.0839ZM527.34 79.6274L527.34 79.6278L527.34 79.6274ZM545.069 115.347C545.069 115.347 545.069 115.347 545.069 115.347L545.069 115.347ZM546.205 131.684C546.205 131.683 546.205 131.683 546.205 131.682L546.205 131.683L546.205 131.684ZM535.154 169.538L535.154 169.538C535.154 169.538 535.154 169.538 535.154 169.537L535.154 169.538ZM525.1 182.392C525.101 182.391 525.101 182.391 525.101 182.391L525.101 182.392L525.1 182.392ZM476.584 202.315C476.584 202.315 476.584 202.315 476.584 202.315L476.584 202.315ZM477.031 202.552C477.031 202.552 477.031 202.552 477.031 202.553L477.031 202.552L477.031 202.552ZM441.148 190.596L441.146 190.595C441.147 190.596 441.147 190.596 441.148 190.597L441.148 190.596Z" fill="#D9E2FF" stroke="black" stroke-width="3"/>
<mask id="path-35-inside-1_1280_52753" fill="white">
<path d="M480.594 114.106C484.57 114.77 488.064 117.041 490.433 120.501C492.803 123.96 493.764 128.195 493.14 132.424C492.515 136.653 490.38 140.37 487.127 142.89C483.875 145.411 479.894 146.432 475.919 145.768C471.943 145.104 468.449 142.833 466.079 139.374C463.71 135.913 462.749 131.679 463.373 127.45C463.998 123.221 466.133 119.505 469.385 116.984C472.03 114.935 475.154 113.877 478.367 113.909C479.106 113.916 479.85 113.982 480.594 114.106ZM485.823 140.985C488.597 138.835 490.418 135.665 490.95 132.057C491.483 128.451 490.663 124.839 488.642 121.888C486.621 118.938 483.641 117.001 480.25 116.434C476.861 115.87 473.464 116.739 470.69 118.889C467.916 121.039 466.095 124.209 465.563 127.816C465.03 131.422 465.85 135.034 467.871 137.985C469.892 140.936 472.872 142.873 476.263 143.44C476.897 143.546 477.531 143.602 478.162 143.608C480.902 143.636 483.567 142.733 485.823 140.985Z"/>
</mask>
<path d="M480.594 114.106C484.57 114.77 488.064 117.041 490.433 120.501C492.803 123.96 493.764 128.195 493.14 132.424C492.515 136.653 490.38 140.37 487.127 142.89C483.875 145.411 479.894 146.432 475.919 145.768C471.943 145.104 468.449 142.833 466.079 139.374C463.71 135.913 462.749 131.679 463.373 127.45C463.998 123.221 466.133 119.505 469.385 116.984C472.03 114.935 475.154 113.877 478.367 113.909C479.106 113.916 479.85 113.982 480.594 114.106ZM485.823 140.985C488.597 138.835 490.418 135.665 490.95 132.057C491.483 128.451 490.663 124.839 488.642 121.888C486.621 118.938 483.641 117.001 480.25 116.434C476.861 115.87 473.464 116.739 470.69 118.889C467.916 121.039 466.095 124.209 465.563 127.816C465.03 131.422 465.85 135.034 467.871 137.985C469.892 140.936 472.872 142.873 476.263 143.44C476.897 143.546 477.531 143.602 478.162 143.608C480.902 143.636 483.567 142.733 485.823 140.985Z" fill="white"/>
<path d="M480.594 114.106L480.099 117.065L480.1 117.065L480.594 114.106ZM487.127 142.89L485.29 140.518L485.29 140.519L487.127 142.89ZM475.919 145.768L476.413 142.809L476.413 142.809L475.919 145.768ZM466.079 139.374L463.604 141.069L463.604 141.069L466.079 139.374ZM463.373 127.45L466.341 127.888L466.341 127.888L463.373 127.45ZM469.385 116.984L467.548 114.612L467.548 114.613L469.385 116.984ZM478.367 113.909L478.398 110.909L478.397 110.909L478.367 113.909ZM485.823 140.985L483.985 138.614L483.985 138.614L485.823 140.985ZM490.95 132.057L487.983 131.619L487.983 131.619L490.95 132.057ZM488.642 121.888L491.118 120.193L491.117 120.193L488.642 121.888ZM480.25 116.434L480.745 113.475L480.743 113.475L480.25 116.434ZM470.69 118.889L468.853 116.518L468.852 116.518L470.69 118.889ZM465.563 127.816L468.53 128.255L468.53 128.254L465.563 127.816ZM467.871 137.985L465.395 139.68L465.396 139.68L467.871 137.985ZM476.263 143.44L475.768 146.399L475.768 146.399L476.263 143.44ZM478.162 143.608L478.132 146.608L478.132 146.608L478.162 143.608ZM480.1 117.065C483.235 117.588 486.029 119.379 487.958 122.196L492.909 118.805C490.099 114.703 485.904 111.951 481.088 111.147L480.1 117.065ZM487.958 122.196C489.891 125.018 490.688 128.488 490.172 131.986L496.107 132.862C496.84 127.901 495.714 122.902 492.909 118.805L487.958 122.196ZM490.172 131.986C489.656 135.481 487.905 138.493 485.29 140.518L488.965 145.261C492.856 142.247 495.375 137.824 496.107 132.862L490.172 131.986ZM485.29 140.519C482.683 142.539 479.544 143.332 476.413 142.809L475.425 148.727C480.244 149.532 485.066 148.283 488.965 145.261L485.29 140.519ZM476.413 142.809C473.278 142.286 470.484 140.496 468.555 137.678L463.604 141.069C466.414 145.171 470.608 147.923 475.425 148.727L476.413 142.809ZM468.555 137.679C466.621 134.855 465.825 131.385 466.341 127.888L460.406 127.012C459.673 131.972 460.798 136.972 463.604 141.069L468.555 137.679ZM466.341 127.888C466.857 124.393 468.608 121.381 471.223 119.355L467.548 114.613C463.657 117.628 461.138 122.05 460.406 127.012L466.341 127.888ZM471.223 119.355C473.348 117.709 475.819 116.883 478.337 116.909L478.397 110.909C474.49 110.87 470.711 112.162 467.548 114.612L471.223 119.355ZM478.336 116.909C478.92 116.915 479.509 116.966 480.099 117.065L481.089 111.147C480.192 110.997 479.293 110.918 478.398 110.909L478.336 116.909ZM487.66 143.356C491.072 140.712 493.277 136.836 493.918 132.496L487.983 131.619C487.558 134.493 486.121 136.958 483.985 138.614L487.66 143.356ZM493.918 132.496C494.559 128.158 493.575 123.781 491.118 120.193L486.167 123.584C487.752 125.897 488.407 128.745 487.983 131.619L493.918 132.496ZM491.117 120.193C488.656 116.6 484.976 114.182 480.745 113.475L479.756 119.393C482.306 119.819 484.586 121.276 486.167 123.584L491.117 120.193ZM480.743 113.475C476.511 112.77 472.274 113.867 468.853 116.518L472.528 121.26C474.655 119.612 477.21 118.969 479.757 119.394L480.743 113.475ZM468.852 116.518C465.441 119.162 463.236 123.037 462.595 127.378L468.53 128.254C468.955 125.38 470.392 122.916 472.528 121.26L468.852 116.518ZM462.595 127.378C461.954 131.716 462.938 136.093 465.395 139.68L470.346 136.29C468.761 133.976 468.106 131.129 468.53 128.255L462.595 127.378ZM465.396 139.68C467.857 143.273 471.537 145.692 475.768 146.399L476.757 140.481C474.207 140.055 471.927 138.598 470.346 136.29L465.396 139.68ZM475.768 146.399C476.554 146.53 477.344 146.6 478.132 146.608L478.193 140.608C477.719 140.603 477.239 140.561 476.757 140.481L475.768 146.399ZM478.132 146.608C481.566 146.643 484.886 145.506 487.66 143.356L483.985 138.614C482.249 139.959 480.238 140.629 478.193 140.608L478.132 146.608Z" fill="black" mask="url(#path-35-inside-1_1280_52753)"/>
<mask id="path-37-inside-2_1280_52753" fill="white">
<path d="M478.882 89.248C477.589 89.2349 476.287 89.2907 474.973 89.4191C474.45 89.4703 473.927 89.5328 473.407 89.6063C471.576 89.8648 469.766 90.2615 468 90.7906C467.95 90.8057 467.9 90.8214 467.849 90.8362C467.544 90.9291 467.241 91.0257 466.938 91.127C466.703 91.205 466.552 91.4345 466.55 91.6829C466.549 91.7434 466.558 91.8046 466.575 91.8651C466.667 92.1763 466.977 92.3476 467.27 92.2514C469.792 91.4107 472.418 90.8524 475.074 90.5931C488.258 89.3051 500.493 95.5032 508.058 105.885C511.96 111.24 514.619 117.708 515.525 124.84C515.597 125.406 515.658 125.978 515.707 126.552C515.826 127.921 515.878 129.285 515.866 130.641C515.783 139.762 512.779 148.504 507.221 155.612C500.836 163.775 491.844 168.805 481.902 169.775C461.378 171.78 443.151 155.646 441.269 133.816C441.153 132.47 441.101 131.124 441.114 129.781C441.166 123.963 442.416 118.221 444.791 112.972C444.827 112.892 444.845 112.807 444.845 112.723C444.848 112.502 444.732 112.288 444.532 112.186C444.256 112.045 443.925 112.168 443.792 112.462C441.347 117.866 440.06 123.778 440.006 129.769C439.993 131.151 440.046 132.538 440.166 133.923C442.104 156.401 460.873 173.017 482.004 170.949C492.24 169.95 501.498 164.77 508.072 156.365C513.796 149.047 516.889 140.046 516.974 130.654C516.986 129.258 516.932 127.854 516.811 126.445C514.993 105.365 498.371 89.4445 478.882 89.248Z"/>
</mask>
<path d="M478.882 89.248C477.589 89.2349 476.287 89.2907 474.973 89.4191C474.45 89.4703 473.927 89.5328 473.407 89.6063C471.576 89.8648 469.766 90.2615 468 90.7906C467.95 90.8057 467.9 90.8214 467.849 90.8362C467.544 90.9291 467.241 91.0257 466.938 91.127C466.703 91.205 466.552 91.4345 466.55 91.6829C466.549 91.7434 466.558 91.8046 466.575 91.8651C466.667 92.1763 466.977 92.3476 467.27 92.2514C469.792 91.4107 472.418 90.8524 475.074 90.5931C488.258 89.3051 500.493 95.5032 508.058 105.885C511.96 111.24 514.619 117.708 515.525 124.84C515.597 125.406 515.658 125.978 515.707 126.552C515.826 127.921 515.878 129.285 515.866 130.641C515.783 139.762 512.779 148.504 507.221 155.612C500.836 163.775 491.844 168.805 481.902 169.775C461.378 171.78 443.151 155.646 441.269 133.816C441.153 132.47 441.101 131.124 441.114 129.781C441.166 123.963 442.416 118.221 444.791 112.972C444.827 112.892 444.845 112.807 444.845 112.723C444.848 112.502 444.732 112.288 444.532 112.186C444.256 112.045 443.925 112.168 443.792 112.462C441.347 117.866 440.06 123.778 440.006 129.769C439.993 131.151 440.046 132.538 440.166 133.923C442.104 156.401 460.873 173.017 482.004 170.949C492.24 169.95 501.498 164.77 508.072 156.365C513.796 149.047 516.889 140.046 516.974 130.654C516.986 129.258 516.932 127.854 516.811 126.445C514.993 105.365 498.371 89.4445 478.882 89.248Z" fill="white"/>
<path d="M478.882 89.248L478.851 92.2478L478.852 92.2478L478.882 89.248ZM474.973 89.4191L474.681 86.4333L474.681 86.4333L474.973 89.4191ZM473.407 89.6063L473.826 92.5769L473.826 92.5768L473.407 89.6063ZM468 90.7906L468.86 93.6649L468.861 93.6644L468 90.7906ZM467.849 90.8362L467.005 87.9575L466.99 87.9619L466.975 87.9665L467.849 90.8362ZM466.938 91.127L467.884 93.974L467.891 93.9716L466.938 91.127ZM466.55 91.6829L463.55 91.6527L463.55 91.6623L466.55 91.6829ZM466.575 91.8651L469.455 91.0226L469.452 91.0132L466.575 91.8651ZM467.27 92.2514L468.207 95.1013L468.218 95.0975L467.27 92.2514ZM475.074 90.5931L475.366 93.5789L475.366 93.5789L475.074 90.5931ZM508.058 105.885L505.633 107.652L505.633 107.652L508.058 105.885ZM515.525 124.84L512.549 125.218L512.549 125.218L515.525 124.84ZM515.707 126.552L512.719 126.81V126.81L515.707 126.552ZM515.866 130.641L512.866 130.614V130.614L515.866 130.641ZM507.221 155.612L509.584 157.46L509.584 157.46L507.221 155.612ZM481.902 169.775L481.611 166.789L481.611 166.789L481.902 169.775ZM441.269 133.816L444.258 133.558L444.258 133.558L441.269 133.816ZM441.114 129.781L444.113 129.808L444.113 129.808L441.114 129.781ZM444.791 112.972L442.06 111.731L442.057 111.736L444.791 112.972ZM444.845 112.723L441.846 112.694L441.845 112.708L444.845 112.723ZM444.532 112.186L445.898 109.515L445.896 109.514L444.532 112.186ZM443.792 112.462L446.525 113.698L446.526 113.697L443.792 112.462ZM440.006 129.769L437.006 129.742L437.006 129.742L440.006 129.769ZM440.166 133.923L437.177 134.181L437.177 134.181L440.166 133.923ZM482.004 170.949L481.712 167.963L481.711 167.963L482.004 170.949ZM508.072 156.365L510.435 158.213L510.435 158.213L508.072 156.365ZM516.974 130.654L519.974 130.681L519.974 130.681L516.974 130.654ZM516.811 126.445L519.8 126.188L519.8 126.187L516.811 126.445ZM478.912 86.2481C477.512 86.2339 476.103 86.2944 474.681 86.4333L475.264 92.4049C476.471 92.287 477.666 92.2358 478.851 92.2478L478.912 86.2481ZM474.681 86.4333C474.115 86.4887 473.549 86.5563 472.987 86.6359L473.826 92.5768C474.305 92.5092 474.785 92.4518 475.265 92.4048L474.681 86.4333ZM472.987 86.6358C471.007 86.9154 469.05 87.3444 467.139 87.9168L468.861 93.6644C470.483 93.1786 472.145 92.8142 473.826 92.5769L472.987 86.6358ZM467.141 87.9162C467.018 87.9532 467.067 87.9392 467.005 87.9575L468.694 93.715C468.735 93.7028 468.773 93.6912 468.8 93.6832C468.83 93.6739 468.844 93.6695 468.86 93.6649L467.141 87.9162ZM466.975 87.9665C466.647 88.0664 466.317 88.1714 465.985 88.2824L467.891 93.9716C468.165 93.8801 468.442 93.7918 468.724 93.706L466.975 87.9665ZM465.992 88.28C464.413 88.8048 463.564 90.264 463.55 91.6527L469.55 91.7131C469.541 92.6049 468.994 93.6053 467.884 93.974L465.992 88.28ZM463.55 91.6623C463.548 92.0075 463.594 92.3633 463.699 92.717L469.452 91.0132C469.521 91.2459 469.551 91.4794 469.55 91.7036L463.55 91.6623ZM463.696 92.7076C464.227 94.5214 466.183 95.7669 468.207 95.1013L466.333 89.4015C467.772 88.9283 469.106 89.8312 469.455 91.0226L463.696 92.7076ZM468.218 95.0975C470.527 94.328 472.932 93.8164 475.366 93.5789L474.783 87.6073C471.903 87.8884 469.057 88.4935 466.321 89.4054L468.218 95.0975ZM475.366 93.5789C487.395 92.4038 498.634 98.0459 505.633 107.652L510.483 104.118C502.352 92.9605 489.122 86.2065 474.782 87.6073L475.366 93.5789ZM505.633 107.652C509.24 112.602 511.708 118.593 512.549 125.218L518.501 124.462C517.531 116.824 514.681 109.879 510.483 104.118L505.633 107.652ZM512.549 125.218C512.616 125.744 512.672 126.275 512.719 126.81L518.696 126.294C518.643 125.68 518.578 125.069 518.501 124.462L512.549 125.218ZM512.719 126.81C512.829 128.084 512.877 129.353 512.866 130.614L518.866 130.668C518.879 129.217 518.823 127.757 518.696 126.294L512.719 126.81ZM512.866 130.614C512.789 139.09 510 147.188 504.858 153.763L509.584 157.46C515.559 149.819 518.777 140.434 518.866 130.668L512.866 130.614ZM504.858 153.763C498.957 161.308 490.702 165.903 481.611 166.789L482.194 172.761C492.987 171.708 502.714 166.243 509.584 157.46L504.858 153.763ZM481.611 166.789C462.92 168.615 446.012 153.902 444.258 133.558L438.28 134.074C440.291 157.391 459.835 174.945 482.194 172.761L481.611 166.789ZM444.258 133.558C444.15 132.308 444.102 131.057 444.113 129.808L438.114 129.753C438.101 131.191 438.155 132.633 438.28 134.074L444.258 133.558ZM444.113 129.808C444.162 124.399 445.324 119.07 447.524 114.209L442.057 111.736C439.507 117.371 438.17 123.526 438.114 129.753L444.113 129.808ZM447.522 114.214C447.738 113.738 447.843 113.234 447.845 112.737L441.845 112.708C441.847 112.379 441.917 112.045 442.06 111.731L447.522 114.214ZM447.845 112.751C447.857 111.511 447.211 110.186 445.898 109.515L443.166 114.857C442.253 114.39 441.838 113.492 441.846 112.694L447.845 112.751ZM445.896 109.514C443.997 108.544 441.851 109.473 441.058 111.226L446.526 113.697C445.999 114.862 444.516 115.546 443.168 114.858L445.896 109.514ZM441.059 111.225C438.438 117.016 437.064 123.342 437.006 129.742L443.006 129.796C443.056 124.215 444.255 118.715 446.525 113.698L441.059 111.225ZM437.006 129.742C436.992 131.219 437.049 132.701 437.177 134.181L443.154 133.666C443.043 132.375 442.994 131.084 443.006 129.796L437.006 129.742ZM437.177 134.181C439.243 158.145 459.33 176.182 482.296 173.934L481.711 167.963C462.415 169.851 444.965 154.657 443.154 133.666L437.177 134.181ZM482.295 173.935C493.383 172.853 503.377 167.238 510.435 158.213L505.709 154.517C499.619 162.303 491.098 167.047 481.712 167.963L482.295 173.935ZM510.435 158.213C516.576 150.363 519.883 140.718 519.974 130.681L513.974 130.627C513.895 139.374 511.016 147.732 505.709 154.517L510.435 158.213ZM519.974 130.681C519.987 129.19 519.93 127.691 519.8 126.188L513.822 126.702C513.935 128.017 513.986 129.326 513.974 130.627L519.974 130.681ZM519.8 126.187C517.861 103.702 500.078 86.4616 478.912 86.2481L478.852 92.2478C496.664 92.4275 512.125 107.028 513.822 126.703L519.8 126.187Z" fill="black" mask="url(#path-37-inside-2_1280_52753)"/>
<path d="M332.037 28.7988L332.369 28.0943L331.983 27.4179L328.136 20.6654L333.491 13.8201L340.285 16.5558L341.099 16.8839L341.784 16.3339C344.61 14.0646 347.791 12.2616 351.237 11.0405L352.013 10.7656L352.198 9.96371L353.951 2.35924L362.165 1.55774L365.178 8.66779L365.507 9.44257L366.339 9.56616C369.934 10.0999 373.366 11.2556 376.527 12.938L377.305 13.3517L378.045 12.8746L384.259 8.86879L390.664 14.5376L388.036 21.9232L387.775 22.6582L388.226 23.2943C390.364 26.3063 392.068 29.7048 393.224 33.3952L393.472 34.1885L394.277 34.3984L401.389 36.2544L402.162 45.2117L395.458 48.426L394.725 48.7774L394.619 49.5835C394.114 53.4384 393.019 57.1132 391.43 60.4926L391.098 61.1971L391.484 61.8736L395.331 68.6259L389.976 75.4715L383.183 72.7357L382.368 72.4075L381.683 72.9577C378.858 75.2273 375.677 77.0298 372.231 78.251L371.455 78.5258L371.27 79.3277L369.516 86.9324L361.303 87.7339L358.289 80.6239L357.961 79.849L357.128 79.7255C353.533 79.1922 350.102 78.0361 346.94 76.3536L346.163 75.9399L345.423 76.4171L339.209 80.423L332.803 74.7541L335.431 67.3685L335.693 66.6334L335.241 65.9972C333.103 62.9854 331.399 59.587 330.243 55.8964L329.995 55.1032L329.191 54.8933L322.078 53.0373L321.306 44.0801L328.009 40.8654L328.742 40.514L328.847 39.7081C329.353 35.8535 330.448 32.1785 332.037 28.7988ZM354.083 1.78753C354.083 1.78761 354.083 1.78769 354.083 1.78776L354.083 1.78753ZM402.674 44.9661L402.673 44.9666C402.673 44.9664 402.673 44.9662 402.674 44.966L402.674 44.9661ZM395.652 68.2145C395.653 68.2139 395.653 68.2133 395.654 68.2127L395.654 68.2129L395.652 68.2145ZM389.578 75.981C389.578 75.9805 389.579 75.9799 389.579 75.9794L389.578 75.9806L389.578 75.981ZM370.128 86.8727L370.125 86.873C370.126 86.8729 370.128 86.8728 370.129 86.8727L370.128 86.8727ZM339.703 80.8605L339.703 80.8604L339.703 80.8605ZM391.584 14.3093L392.253 14.5475L391.584 14.3093Z" fill="#D9E2FF" stroke="black" stroke-width="3"/>
<path d="M363.162 34.9708C368.177 35.8086 371.617 40.8306 370.829 46.166C370.447 48.7506 369.143 51.022 367.155 52.5624C365.167 54.1035 362.734 54.7281 360.304 54.3216C357.874 53.9157 355.739 52.5276 354.291 50.4133C352.843 48.2984 352.255 45.7108 352.637 43.1264C353.019 40.5418 354.324 38.27 356.311 36.73C357.927 35.4771 359.837 34.8303 361.8 34.85C362.252 34.8547 362.707 34.8946 363.162 34.9708ZM366.245 51.2337C367.899 49.9519 368.985 48.0615 369.303 45.9116C369.958 41.471 367.096 37.2914 362.922 36.5946H362.921C360.901 36.2557 358.875 36.7759 357.221 38.0588C355.567 39.3405 354.481 41.2309 354.163 43.3811C353.846 45.5319 354.334 47.6863 355.54 49.4457C356.745 51.2057 358.522 52.3607 360.544 52.6983C360.922 52.7614 361.301 52.7949 361.677 52.7987C363.311 52.8148 364.9 52.2765 366.245 51.2337Z" fill="black"/>
<path d="M362.121 19.5929C361.325 19.5849 360.523 19.6193 359.714 19.6978C359.678 19.7015 359.642 19.7053 359.606 19.7086C357.989 19.874 356.391 20.214 354.852 20.7211C354.823 20.7302 354.796 20.7397 354.767 20.7492C354.44 20.8581 354.229 21.1788 354.226 21.5243C354.225 21.6088 354.237 21.6948 354.262 21.7792C354.389 22.2116 354.824 22.4537 355.23 22.3174C356.725 21.8187 358.28 21.4884 359.855 21.335C359.864 21.3344 359.873 21.3326 359.873 21.3326C368.43 20.509 376.302 24.9919 380.607 32.2241C382.423 35.2726 383.605 38.8104 383.935 42.6444C384.005 43.4501 384.035 44.2496 384.028 45.0417C383.919 56.9723 375.306 67.1461 363.902 68.259C358.008 68.8331 352.26 66.9349 347.713 62.909C343.165 58.884 340.362 53.2163 339.822 46.9494C339.753 46.1517 339.723 45.3536 339.73 44.5572C339.761 41.1089 340.501 37.7065 341.908 34.597C341.959 34.4847 341.984 34.3659 341.984 34.2488C341.987 33.9407 341.826 33.6426 341.547 33.5003C341.162 33.304 340.701 33.4749 340.516 33.8847C339.01 37.2115 338.218 40.8522 338.185 44.541C338.177 45.3924 338.209 46.2461 338.283 47.099C338.861 53.8039 341.859 59.8667 346.724 64.1728C351.589 68.4795 357.74 70.5116 364.043 69.8963C376.243 68.7056 385.457 57.8219 385.573 45.059C385.58 44.2117 385.548 43.3559 385.474 42.4946C384.355 29.5152 374.12 19.7146 362.121 19.5929Z" fill="black"/>
<path d="M120.528 582.012C113.038 582.701 100.038 583.819 89.7892 584.299C83.6285 584.588 80.0817 583.946 78.0391 583.076C78.0426 583.321 78.0491 583.552 78.058 583.767C78.1064 584.914 78.9827 585.832 80.0721 585.897C99.4374 587.047 114.839 586.295 120.322 585.94C121.455 585.866 122.131 584.555 121.551 583.528C121.261 583.014 120.91 582.51 120.528 582.012Z" fill="url(#paint0_linear_1280_52753)"/>
<path d="M89.788 584.296C100.037 583.816 113.037 582.698 120.527 582.009C113.163 572.398 89.788 565.92 89.788 565.92H83.1862C78.6455 572.882 77.9881 579.511 78.0376 583.073C80.0805 583.943 83.6273 584.585 89.788 584.296Z" fill="black"/>
<path d="M83.1954 567.436L83.1954 567.436L82.6024 554.955L93.8028 554.955L91.7665 567.031C91.5829 568.12 90.8462 568.999 89.8719 569.344L89.8718 569.344C88.0965 569.973 86.417 569.95 85.1549 569.758L85.1547 569.758C84.0895 569.596 83.2522 568.632 83.1954 567.436Z" fill="white" stroke="black"/>
<path d="M5.4562 597.013C2.20778 596.389 0.738177 594.07 0.121831 591.59C0.117664 591.612 0.113708 591.634 0.109749 591.657C-0.368242 594.273 0.739642 596.984 2.95457 598.273C5.63165 599.832 8.55877 600.098 10.8312 599.969C13.2693 599.831 15.5071 598.444 16.7373 596.224L16.7559 596.19C14.3086 597.855 10.8735 598.051 5.4562 597.013Z" fill="url(#paint1_linear_1280_52753)"/>
<path d="M20.7703 558.465H15.3262C7.03321 558.231 1.82573 582.278 0.121094 591.59C0.737231 594.07 2.20705 596.39 5.45547 597.013C10.8726 598.051 14.3079 597.855 16.7549 596.191C21.2352 588.086 23.4564 576.215 24.5241 569.287C25.7382 561.408 20.7703 558.465 20.7703 558.465Z" fill="url(#paint2_linear_1280_52753)"/>
<path d="M16.3971 547.002L26.9825 549.692L22.7121 562.639C22.7121 562.639 22.7121 562.639 22.712 562.639C22.4245 563.511 21.7137 564.129 20.8992 564.234L20.8991 564.234C18.8762 564.493 16.615 563.592 14.9418 562.678L14.9418 562.678C13.7846 562.047 13.1698 560.656 13.4909 559.298L16.3971 547.002Z" fill="white" stroke="black"/>
<path d="M77.3495 375.874L120.65 379.304L120.586 379.731C120.389 381.047 120.099 382.977 119.73 385.434C118.992 390.348 117.938 397.369 116.675 405.798C114.149 422.654 110.786 445.14 107.437 467.657C104.087 490.174 100.752 512.723 98.2812 529.706C97.046 538.196 96.0266 545.298 95.3297 550.309C94.9814 552.814 94.713 554.802 94.5384 556.181C94.4702 556.72 94.4155 557.172 94.3759 557.528C94.2657 557.569 94.1447 557.613 94.0133 557.659C93.2487 557.927 92.1409 558.256 90.7931 558.494C88.3297 558.928 85.1153 559.048 81.7334 557.969C81.7527 557.258 81.7817 556.211 81.8206 554.866C81.8985 552.17 82.0162 548.277 82.1754 543.49C82.4937 533.917 82.9778 520.769 83.6405 506.473C84.9676 477.848 87.0072 444.718 89.8549 426.402L87.0514 425.462L88.3728 426.171C87.0514 425.462 87.0511 425.462 87.0508 425.463L87.0491 425.466L87.0427 425.478L87.0175 425.525L86.9178 425.711C86.8298 425.875 86.6992 426.119 86.5282 426.439C86.1863 427.079 85.6832 428.024 85.0379 429.24C83.7472 431.673 81.8873 435.196 79.61 439.556C75.0554 448.277 68.8298 460.351 62.1459 473.764C49.0394 500.064 34.125 531.601 26.6206 553.078C26.6202 553.078 26.6198 553.078 26.6194 553.078C25.8423 552.925 24.736 552.676 23.4378 552.294C21.0935 551.603 18.1717 550.491 15.4393 548.757C15.5021 548.562 15.5732 548.342 15.6523 548.097C16.019 546.961 16.5585 545.292 17.25 543.161C18.6328 538.897 20.6233 532.784 23.0533 525.383C27.9134 510.582 34.531 490.633 41.562 470.043C48.5937 449.45 56.0356 428.226 62.5447 410.869C65.7996 402.19 68.8171 394.489 71.4305 388.323C73.8076 382.714 75.8193 378.451 77.3495 375.874Z" fill="white" stroke="black" stroke-width="3"/>
<path d="M89.7437 424.581L99.7621 407.559L107.049 405.999L106.915 405.291L99.3416 406.913L89.168 424.198L89.7437 424.581Z" fill="black"/>
<path d="M243.575 203.755C244.374 203.548 245.039 203.382 245.538 203.259C245.561 204.059 245.278 204.583 244.992 204.929C244.78 205.183 244.544 205.366 244.358 205.484C244.266 205.543 244.191 205.583 244.142 205.607C244.13 205.614 244.119 205.619 244.111 205.623L234.786 208.696L234.099 208.922V209.645C234.099 210.449 234.13 211.234 234.161 211.998C234.164 212.063 234.166 212.128 234.169 212.193C234.198 212.893 234.226 213.573 234.234 214.257C234.251 215.745 234.171 217.209 233.801 218.753C233.261 221.007 231.868 222.942 229.997 224.186C227.921 225.566 225.182 227.303 222.828 228.519C220.773 229.581 218.945 229.628 217.638 229.422C216.98 229.318 216.452 229.15 216.094 229.01C215.915 228.941 215.78 228.879 215.694 228.837C215.651 228.816 215.621 228.8 215.603 228.79L215.587 228.782L215.587 228.781L215.587 228.781L215.586 228.781L214.372 228.079L214.108 229.461C209.542 253.346 200.255 268.17 189.49 277.255C187.567 265.444 183.788 257.925 181.065 253.797C199.963 244.201 209.71 225.093 212.988 217.454L212.069 217.06L212.988 217.454C213.899 215.331 215.492 213.624 217.469 212.654C222.934 209.97 230.196 207.558 236.128 205.812C239.087 204.941 241.701 204.239 243.575 203.755Z" fill="white" stroke="black" stroke-width="2"/>
<path d="M65.1709 295.342L66.2716 298.503C73.6223 319.617 77.048 350.3 77.7644 363.855C78.0109 368.518 77.2419 373.173 75.521 377.481L75.5209 377.481L75.3421 377.928C75.342 377.928 75.342 377.929 75.3419 377.929C75.3303 377.958 75.3316 377.992 75.3447 378.02C94.7677 382.654 115.015 381.396 121.078 380.863L121.079 380.863C121.469 380.829 121.875 380.516 121.994 379.982L121.994 379.982C131.529 337.247 131.533 308.176 129.216 289.885L128.944 287.736L131.051 288.238C139.825 290.324 166.093 294.638 187.163 278.492C185.363 266.69 181.668 259.279 179.075 255.308C166.896 260.801 151.297 262.295 131.778 255.101M65.1709 295.342L131.778 255.101M65.1709 295.342L63.544 298.267C53.5768 316.191 54.8792 330.28 60.4271 340.788C58.0631 344.608 55.4012 349.558 52.9994 355.56C37.2665 345.011 32.1549 329.784 31.9188 314.718C31.6742 299.11 36.6786 283.78 40.5357 274.364M65.1709 295.342L40.5357 274.364M131.778 255.101C130.092 254.479 128.332 254.115 126.544 254.003L126.627 252.672L126.544 254.003C116.028 253.347 81.5549 252.171 53.1181 262.165C47.4932 264.142 42.9064 268.577 40.5357 274.364M131.778 255.101L40.5357 274.364M74.9641 379.471C94.6363 384.171 115.097 382.894 121.21 382.357L74.9641 379.471Z" fill="#D9E2FF" stroke="black" stroke-width="3"/>
<path d="M123.762 263.652C123.762 263.652 128.443 271.498 130.746 290.003L123.762 263.652Z" fill="black"/>
<path d="M82.8469 231.227C82.9422 230.246 83.0198 229.424 83.0765 228.813L99.9403 233.496L100.771 254.396L100.771 254.396C100.831 255.899 100.058 257.271 98.8507 257.901C89.4862 262.783 82.7322 259.943 79.969 258.263L79.969 258.263C79.5085 257.984 79.256 257.386 79.4141 256.789L79.4141 256.789C80.3133 253.391 81.2558 246.058 81.9696 239.659C82.3286 236.441 82.6326 233.432 82.8469 231.227Z" fill="white" stroke="black" stroke-width="2"/>
<path d="M81.8338 226.081L81.8338 226.081L81.8308 226.075L81.8308 226.075L81.8307 226.075L81.8301 226.074L81.8271 226.068L81.8145 226.043L81.7637 225.941C81.7189 225.85 81.6528 225.716 81.5689 225.543C81.401 225.196 81.162 224.693 80.8792 224.073C80.3131 222.833 79.5744 221.129 78.8808 219.27C78.1857 217.408 77.5446 215.413 77.1643 213.585C76.777 211.725 76.6909 210.175 76.9803 209.132C77.0732 208.797 77.4017 208.325 78.133 207.748C78.8424 207.188 79.8204 206.614 81.0076 206.043C83.3784 204.901 86.441 203.833 89.4993 202.913C92.5498 201.995 95.5605 201.235 97.8114 200.704C98.9361 200.439 99.8692 200.231 100.52 200.09C100.591 200.074 100.658 200.06 100.722 200.046C100.893 200.478 101.127 201.077 101.405 201.808C102.005 203.385 102.809 205.571 103.626 208.01C105.273 212.924 106.926 218.735 107.132 222.664C107.185 223.679 107.257 224.649 107.325 225.563L107.328 225.611C107.397 226.543 107.461 227.412 107.499 228.231C107.574 229.88 107.537 231.238 107.253 232.365C106.977 233.459 106.472 234.327 105.585 235.026C104.672 235.744 103.286 236.339 101.156 236.734C92.8082 238.28 85.7276 233.899 81.8338 226.081Z" fill="white" stroke="black" stroke-width="2"/>
<path d="M83.9741 220.68L84.4792 220.443C85.1224 220.141 85.3974 219.327 85.0743 218.663C83.823 216.091 81.3835 210.198 84.5348 208.823C88.5963 207.051 104.684 203.561 108.155 197.489C111.491 191.653 108.535 184.12 104.093 181.977C103.796 181.834 103.445 181.948 103.293 182.255L102.922 183C102.669 183.51 101.961 183.433 101.81 182.878C101.665 182.346 101 182.243 100.724 182.713C99.657 184.53 96.7765 187.475 89.0734 188.987C78.1259 191.136 70.8879 195.849 70.7077 203.895C70.6962 204.407 70.1851 204.691 69.7744 204.425C68.9661 203.901 67.6726 203.655 65.9438 205.201C62.9373 207.89 64.1675 214.866 70.7585 220.604C71.0715 220.877 71.069 221.397 70.73 221.631C69.5352 222.459 67.7539 224.427 72.3692 227.052C77.143 229.766 80.7078 229.544 82.0805 229.303C82.422 229.243 82.642 228.891 82.5676 228.531L81.1026 221.459C81.0197 221.059 81.3062 220.68 81.6915 220.68L83.9741 220.68Z" fill="black"/>
<path d="M83.731 222.176L82.8008 225.939C82.1762 225.746 81.4163 225.281 80.6247 224.589C79.6603 223.746 78.7138 222.621 77.9963 221.424C77.2752 220.221 76.8096 218.986 76.7553 217.919C76.7023 216.877 77.0369 216.019 77.9075 215.44L77.9075 215.44C78.3625 215.138 78.7617 215.028 79.1117 215.031C79.4633 215.035 79.8093 215.154 80.1553 215.383C80.8648 215.852 81.5128 216.741 82.067 217.788C82.6141 218.822 83.0384 219.947 83.3269 220.822C83.4707 221.257 83.5797 221.627 83.6526 221.887C83.6867 222.009 83.7129 222.107 83.731 222.176Z" fill="white" stroke="black"/>
<path d="M231.053 214.379C231.053 214.379 231.053 214.379 231.053 214.379L230.469 214.25C230.469 214.25 230.469 214.25 230.468 214.25L231.053 214.379Z" stroke="black" stroke-width="2"/>
<path d="M62.1334 342.792C66.3824 349.92 72.0203 355.995 76.6881 360.357C79.1841 362.69 81.4121 364.542 83.018 365.811C83.8212 366.446 84.4693 366.936 84.9183 367.269C85.1428 367.435 85.3175 367.562 85.437 367.647C85.4967 367.69 85.5426 367.723 85.574 367.745L85.6102 367.771L85.6199 367.778L85.6227 367.78L85.6236 367.78C85.6238 367.78 85.6241 367.781 86.197 366.961L85.6241 367.781L86.4128 368.332L86.9113 367.674C86.9252 367.67 86.9418 367.667 86.9611 367.662C87.1267 367.627 87.3922 367.603 87.7747 367.607C88.5336 367.616 89.5817 367.733 90.8488 367.939C93.3725 368.35 96.6162 369.09 99.837 369.902C102.07 370.464 104.281 371.058 106.217 371.594L84.1522 372.104C74.209 370.317 65.9849 364.785 59.1152 360.164C57.6706 359.192 56.2859 358.261 54.9578 357.413C57.2521 351.505 59.8216 346.606 62.1334 342.792ZM86.8472 367.695C86.847 367.695 86.8496 367.694 86.8554 367.692C86.8502 367.694 86.8473 367.695 86.8472 367.695Z" fill="white" stroke="black" stroke-width="2"/>
<path d="M84.337 369.123C84.5701 369.158 84.8246 369.19 85.0969 369.221C86.2018 369.347 87.6836 369.455 89.4002 369.547C92.838 369.733 97.2791 369.863 101.665 369.953C106.054 370.044 110.397 370.095 113.643 370.124C114.252 370.129 114.823 370.134 115.348 370.137C114.129 370.813 112.632 371.614 110.986 372.432C106.671 374.576 101.472 376.766 97.579 377.224L97.579 377.224C93.9528 377.651 91.3587 377.226 89.5011 376.419C87.6526 375.617 86.4688 374.41 85.6992 373.154C84.9224 371.887 84.5599 370.555 84.3944 369.526C84.3717 369.385 84.3528 369.25 84.337 369.123Z" fill="white" stroke="black" stroke-width="2"/>
<path d="M89.1494 371.083C89.204 371.085 89.2586 371.087 89.3138 371.087L160.733 371.005C162.499 371.003 163.928 369.495 163.927 367.637C163.925 365.778 162.487 364.242 160.726 364.276L89.3067 364.358C87.5412 364.36 86.1116 365.868 86.1133 367.726C86.1152 369.526 87.4604 370.995 89.1494 371.083Z" fill="black"/>
<path d="M224.936 302.834H165.457C161.069 302.834 157.076 305.499 155.204 309.676L127.707 371.042H201.623C204.451 371.042 206.991 369.224 208.031 366.456L229.353 309.671C230.585 306.39 228.288 302.834 224.936 302.834Z" fill="black"/>
<path d="M183.032 334.299C181.743 338.514 182.695 342.607 185.158 343.441C187.622 344.276 190.664 341.536 191.953 337.321C193.242 333.107 192.29 329.013 189.826 328.179C187.363 327.344 184.321 330.085 183.032 334.299Z" fill="white"/>
<defs>
<linearGradient id="paint0_linear_1280_52753" x1="78.0391" y1="584.261" x2="121.763" y2="584.261" gradientUnits="userSpaceOnUse">
<stop stop-color="#4F52FF"/>
<stop offset="1" stop-color="#4042E2"/>
</linearGradient>
<linearGradient id="paint1_linear_1280_52753" x1="0.000149064" y1="595.794" x2="16.7559" y2="595.794" gradientUnits="userSpaceOnUse">
<stop stop-color="#4F52FF"/>
<stop offset="1" stop-color="#4042E2"/>
</linearGradient>
<linearGradient id="paint2_linear_1280_52753" x1="0.120885" y1="578.057" x2="24.7151" y2="578.057" gradientUnits="userSpaceOnUse">
<stop offset="1"/>
</linearGradient>
</defs>
</svg>
